<?xml version="1.0" encoding="utf-8"?>
<!-- Generator: Adobe Illustrator 22.1.0, SVG Export Plug-In . SVG Version: 6.00 Build 0)  -->
<svg version="1.1" id="Layer_1" xmlns="http://www.w3.org/2000/svg" xmlns:xlink="http://www.w3.org/1999/xlink" x="0px" y="0px"
	 viewBox="0 0 2000 2000" style="enable-background:new 0 0 2000 2000;" xml:space="preserve">
<style type="text/css">
	.st0{display:none;fill:#303030;}
	.st1{display:none;fill:#3AEFD5;}
	.st2{display:none;}
	.st3{fill:#B30000;}
	.st4{fill:url(#SVGID_1_);}
	.st5{fill:url(#SVGID_2_);}
	.st6{fill:url(#SVGID_3_);}
	.st7{fill:url(#SVGID_4_);}
	.st8{fill:url(#SVGID_5_);}
	.st9{fill:url(#SVGID_6_);}
	.st10{fill:url(#SVGID_7_);}
	.st11{fill:url(#SVGID_8_);}
	.st12{fill:url(#SVGID_9_);}
	.st13{fill:url(#SVGID_10_);}
	.st14{fill:url(#SVGID_11_);}
</style>
<rect x="0" class="st0" width="2000" height="2000"/>
<g>
	<g>
		<path class="st3" d="M1000,1300.5c-28.7,0-56-5.8-80.9-16.3l-25,31.5c33.3,11.2,68.9,17.2,105.9,17.2c37,0,72.7-6.1,105.9-17.2
			l-25-31.5C1056,1294.7,1028.7,1300.5,1000,1300.5z"/>
		<path class="st3" d="M816.7,1091.2c0,101.1,82.2,183.3,183.3,183.3s183.3-82.2,183.3-183.3c0-101.1-82.2-183.3-183.3-183.3
			S816.7,990.2,816.7,1091.2z M1000,927.1c90.5,0,164.1,73.6,164.1,164.1s-73.6,164.1-164.1,164.1s-164.1-73.6-164.1-164.1
			S909.5,927.1,1000,927.1z"/>
		<rect x="851.7" y="1081.3" class="st3" width="34.9" height="15.6"/>
		
			<rect x="868.8" y="1146.4" transform="matrix(0.866 -0.5 0.5 0.866 -458.3784 597.7535)" class="st3" width="34.9" height="15.6"/>
		<rect x="1112.1" y="1082.6" class="st3" width="34.9" height="15.6"/>
		<rect x="1095" y="1017.4" transform="matrix(0.866 -0.5 0.5 0.866 -363.5529 693.5218)" class="st3" width="34.9" height="15.6"/>
		
			<rect x="1104" y="1137.9" transform="matrix(0.5 -0.866 0.866 0.5 -444.6959 1540.5001)" class="st3" width="15.6" height="34.9"/>
		
			<rect x="1047.5" y="969.5" transform="matrix(0.5 -0.866 0.866 0.5 -313.8701 1410.9619)" class="st3" width="34.9" height="15.6"/>
		
			<rect x="1056.1" y="1185.3" transform="matrix(0.866 -0.5 0.5 0.866 -458.8606 693.0829)" class="st3" width="15.6" height="34.9"/>
		<rect x="992.2" y="942.1" class="st3" width="15.6" height="34.9"/>
		<rect x="927" y="959.2" transform="matrix(0.866 -0.5 0.5 0.866 -363.0896 598.2526)" class="st3" width="15.6" height="34.9"/>
		
			<rect x="916.2" y="1194.3" transform="matrix(0.5 -0.866 0.866 0.5 -574.236 1409.6775)" class="st3" width="34.9" height="15.6"/>
		
			<rect x="879.1" y="1006.6" transform="matrix(0.5 -0.866 0.866 0.5 -443.4127 1280.1268)" class="st3" width="15.6" height="34.9"/>
		<path class="st3" d="M1053.5,792.8c-1.8-5.5-15.3-15.8-53.5-15.8s-51.7,10.3-53.5,15.8c-1.8,5.5,2.4,16.3,11.4,23
			c9.7,7.2,26.7,12.1,42.1,12.1c15.5,0,32.4-4.9,42.1-12.1C1051.1,809.1,1055.3,798.3,1053.5,792.8z"/>
		<path class="st3" d="M1000,667.1c-183.8,0-332.9,149-332.9,332.9c0,133.7,78.8,248.9,192.5,301.9l27.5-34.6
			c-57.9-37.3-96.4-102.2-96.4-176.1c0-109.4,84.4-199.4,191.5-208.5v-24c-15.6-2.5-31.6-8-43.6-17c-36.9-27.5-44.5-97,61.4-97
			c105.9,0,98.3,69.5,61.4,97c-12.1,9-28.1,14.5-43.6,17v24c107.1,9.1,191.5,99.1,191.5,208.5c0,73.8-38.5,138.8-96.4,176.1
			l27.5,34.6c113.7-53,192.5-168.2,192.5-301.9C1332.9,816.2,1183.8,667.1,1000,667.1z M920.8,875c-44.8,16.9-83,47.3-109.5,86.4
			c-22.3-36.3-14-82,18.6-102.4C858.6,841.1,896.6,848.6,920.8,875z M1188.7,961.4c-26.5-39-64.7-69.5-109.5-86.4
			c24.3-26.5,62.2-34,90.9-16.1C1202.8,879.4,1211.1,925.1,1188.7,961.4z"/>
	</g>
	<g>
		<polygon class="st3" points="1014.3,1081.3 1000,1081.3 985.7,1081.3 976.3,1098.6 1000,1107.3 1023.7,1098.6 		"/>
		<polygon class="st3" points="1009.8,1109.8 1000,1113.7 990.2,1109.8 972.1,1219.9 1000,1246.3 1027.9,1219.9 		"/>
	</g>
	<rect x="996.8" y="995.7" class="st3" width="6.4" height="72.3"/>
</g>
</svg>
