<?xml version="1.0" encoding="UTF-8" standalone="no"?><!DOCTYPE svg PUBLIC "-//W3C//DTD SVG 1.1//EN" "http://www.w3.org/Graphics/SVG/1.1/DTD/svg11.dtd"><svg width="100%" height="100%" viewBox="0 0 2134 1250" version="1.1" xmlns="http://www.w3.org/2000/svg" xmlns:xlink="http://www.w3.org/1999/xlink" xml:space="preserve" xmlns:serif="http://www.serif.com/" style="fill-rule:evenodd;clip-rule:evenodd;stroke-linejoin:round;stroke-miterlimit:2;"><g id="Layer-1" serif:id="Layer 1"><path d="M997.665,484.793l-0,43.894l-71.079,0l0,229.001l-45.941,0l0,-229.001l-71.078,0l0,-43.894l188.098,-0Z" style="fill:url(#_Linear1);fill-rule:nonzero;"/><rect x="1080.48" y="484.793" width="45.937" height="272.896" style="fill:url(#_Linear2);"/><path d="M1235.23,757.688l-0,-272.895l47.669,-0l84.081,207.058l82.35,-207.058l45.934,-0l0,272.895l-42.471,0l0,-190.071l-67.261,190.071l-39.184,0l-68.645,-190.071l-0,190.071l-42.473,0Z" style="fill:url(#_Linear3);fill-rule:nonzero;"/><path d="M1773.81,484.793l-0,43.51l-124.126,0l0,68.7l118.229,0l0,45.231l-118.754,-0l-0,71.56l127.077,0l-0,43.894l-172.146,0l-0,-272.895l169.72,-0Z" style="fill:url(#_Linear4);fill-rule:nonzero;"/><path d="M1866.85,621.625c3.695,91.98 45.191,137.973 124.472,137.973c81.712,0 122.567,-45.993 122.567,-137.973c-0,-92.491 -40.855,-138.742 -122.567,-138.742c-82.977,-0 -124.472,46.251 -124.472,138.742Zm47.676,-1.145c0,-62.469 25.597,-93.703 76.796,-93.703c49.93,-0 74.895,31.234 74.895,93.703c-0,63.483 -24.965,95.224 -74.895,95.224c-51.199,0 -76.796,-31.741 -76.796,-95.224Z" style="fill:url(#_Linear5);fill-rule:nonzero;"/><path d="M216.387,401.213l161.909,114.087l161.868,-114.087c-44.224,-39.49 -100.551,-63.123 -161.868,-63.123c-61.362,0 -117.732,23.684 -161.909,63.123Z" style="fill:url(#_Linear6);fill-rule:nonzero;"/><path d="M378.296,904.391c-61.362,0 -117.732,-23.683 -161.909,-63.121l-55.486,39.098l217.395,153.139l217.354,-153.139l-55.486,-39.098c-44.224,39.486 -100.551,63.121 -161.868,63.121Z" style="fill:url(#_Linear7);fill-rule:nonzero;"/><path d="M40.767,292.573c-21.648,15.253 -34.573,41.252 -34.575,69.548c0,28.298 12.925,54.297 34.575,69.553l269.067,189.567l-269.067,189.566c-21.648,15.251 -34.573,41.253 -34.575,69.546c0,28.3 12.925,54.3 34.575,69.556l337.514,237.788l337.514,-237.791c21.648,-15.256 34.57,-41.255 34.57,-69.553c0,-28.293 -12.927,-54.292 -34.574,-69.546l-269.065,-189.566l269.069,-189.569c21.648,-15.256 34.57,-41.258 34.57,-69.551c0,-28.296 -12.927,-54.295 -34.574,-69.548l-337.51,-237.789l-337.514,237.789Zm39.782,70.683c-0.329,-0.226 -0.566,-0.396 -0.566,-1.133c0,-0.736 0.237,-0.903 0.563,-1.132l297.735,-209.763l297.73,209.763c0.327,0.229 0.563,0.396 0.563,1.132c0,0.737 -0.236,0.907 -0.563,1.133l-297.73,209.763l-297.732,-209.763Zm-0,518.234c-0.329,-0.228 -0.566,-0.396 -0.566,-1.132c0,-0.736 0.237,-0.904 0.563,-1.135l297.735,-209.76l297.73,209.76c0.327,0.231 0.563,0.399 0.563,1.135c0,0.736 -0.236,0.904 -0.563,1.132l-297.73,209.763l-297.732,-209.763Z" style="fill:url(#_Linear8);fill-rule:nonzero;"/><rect x="365.025" y="665.504" width="26.506" height="57.211" style="fill:url(#_Linear9);"/><rect x="365.025" y="748.756" width="26.506" height="57.211" style="fill:url(#_Linear10);"/><rect x="365.025" y="832.005" width="26.506" height="57.213" style="fill:url(#_Linear11);"/></g><defs><linearGradient id="_Linear1" x1="0" y1="0" x2="1" y2="0" gradientUnits="userSpaceOnUse" gradientTransform="matrix(0,980.569,-890.777,0,903.617,61.7585)"><stop offset="0" style="stop-color:#00c2ff;stop-opacity:1"/><stop offset="1" style="stop-color:#004fff;stop-opacity:1"/></linearGradient><linearGradient id="_Linear2" x1="0" y1="0" x2="1" y2="0" gradientUnits="userSpaceOnUse" gradientTransform="matrix(0,980.569,-890.777,0,1103.45,61.7585)"><stop offset="0" style="stop-color:#00c2ff;stop-opacity:1"/><stop offset="1" style="stop-color:#004fff;stop-opacity:1"/></linearGradient><linearGradient id="_Linear3" x1="0" y1="0" x2="1" y2="0" gradientUnits="userSpaceOnUse" gradientTransform="matrix(0,980.569,-890.777,0,1365.25,61.7585)"><stop offset="0" style="stop-color:#00c2ff;stop-opacity:1"/><stop offset="1" style="stop-color:#004fff;stop-opacity:1"/></linearGradient><linearGradient id="_Linear4" x1="0" y1="0" x2="1" y2="0" gradientUnits="userSpaceOnUse" gradientTransform="matrix(0,980.569,-890.777,0,1690.16,61.7585)"><stop offset="0" style="stop-color:#00c2ff;stop-opacity:1"/><stop offset="1" style="stop-color:#004fff;stop-opacity:1"/></linearGradient><linearGradient id="_Linear5" x1="0" y1="0" x2="1" y2="0" gradientUnits="userSpaceOnUse" gradientTransform="matrix(0,980.569,-890.777,0,1990.37,61.7585)"><stop offset="0" style="stop-color:#00c2ff;stop-opacity:1"/><stop offset="1" style="stop-color:#004fff;stop-opacity:1"/></linearGradient><linearGradient id="_Linear6" x1="0" y1="0" x2="1" y2="0" gradientUnits="userSpaceOnUse" gradientTransform="matrix(-1.13687e-13,980.569,-890.777,-1.13687e-13,378.275,61.7585)"><stop offset="0" style="stop-color:#00c2ff;stop-opacity:1"/><stop offset="1" style="stop-color:#004fff;stop-opacity:1"/></linearGradient><linearGradient id="_Linear7" x1="0" y1="0" x2="1" y2="0" gradientUnits="userSpaceOnUse" gradientTransform="matrix(0,980.569,-890.777,0,378.275,61.7585)"><stop offset="0" style="stop-color:#00c2ff;stop-opacity:1"/><stop offset="1" style="stop-color:#004fff;stop-opacity:1"/></linearGradient><linearGradient id="_Linear8" x1="0" y1="0" x2="1" y2="0" gradientUnits="userSpaceOnUse" gradientTransform="matrix(0,980.569,-890.777,0,378.278,61.7585)"><stop offset="0" style="stop-color:#00c2ff;stop-opacity:1"/><stop offset="1" style="stop-color:#004fff;stop-opacity:1"/></linearGradient><linearGradient id="_Linear9" x1="0" y1="0" x2="1" y2="0" gradientUnits="userSpaceOnUse" gradientTransform="matrix(0,980.569,-890.777,0,378.277,61.7585)"><stop offset="0" style="stop-color:#00c2ff;stop-opacity:1"/><stop offset="1" style="stop-color:#004fff;stop-opacity:1"/></linearGradient><linearGradient id="_Linear10" x1="0" y1="0" x2="1" y2="0" gradientUnits="userSpaceOnUse" gradientTransform="matrix(0,980.569,-890.777,0,378.277,61.7585)"><stop offset="0" style="stop-color:#00c2ff;stop-opacity:1"/><stop offset="1" style="stop-color:#004fff;stop-opacity:1"/></linearGradient><linearGradient id="_Linear11" x1="0" y1="0" x2="1" y2="0" gradientUnits="userSpaceOnUse" gradientTransform="matrix(0,980.569,-890.777,0,378.277,61.7585)"><stop offset="0" style="stop-color:#00c2ff;stop-opacity:1"/><stop offset="1" style="stop-color:#004fff;stop-opacity:1"/></linearGradient></defs></svg>