<?xml version="1.0" encoding="utf-8"?>
<!-- Generator: Adobe Illustrator 22.1.0, SVG Export Plug-In . SVG Version: 6.00 Build 0)  -->
<svg version="1.1" id="Layer_1" xmlns="http://www.w3.org/2000/svg" xmlns:xlink="http://www.w3.org/1999/xlink" x="0px" y="0px"
	 viewBox="0 0 2000 2000" style="enable-background:new 0 0 2000 2000;" xml:space="preserve">
<style type="text/css">
	.st0{display:none;fill:#303030;}
	.st1{display:none;fill:#3AEFD5;}
	.st2{display:none;}
	.st3{fill:#B30000;}
	.st4{fill:url(#SVGID_1_);}
	.st5{fill:url(#SVGID_2_);}
	.st6{fill:url(#SVGID_3_);}
	.st7{fill:url(#SVGID_4_);}
	.st8{fill:url(#SVGID_5_);}
	.st9{fill:url(#SVGID_6_);}
	.st10{fill:url(#SVGID_7_);}
	.st11{fill:url(#SVGID_8_);}
	.st12{fill:url(#SVGID_9_);}
	.st13{fill:url(#SVGID_10_);}
	.st14{fill:url(#SVGID_11_);}
</style>
<rect x="0" class="st1" width="2000" height="2000"/>
<g>
	<g>
		<linearGradient id="SVGID_1_" gradientUnits="userSpaceOnUse" x1="929.142" y1="769.7661" x2="929.142" y2="1173.2827">
			<stop  offset="0" style="stop-color:#00C2FF"/>
			<stop  offset="1" style="stop-color:#004FFF"/>
		</linearGradient>
		<path class="st4" d="M971.7,943.8v18.1h-32.2v94.2h-20.8v-94.2h-32.2v-18.1H971.7z"/>
		<linearGradient id="SVGID_2_" gradientUnits="userSpaceOnUse" x1="1019.6633" y1="769.7661" x2="1019.6633" y2="1173.2827">
			<stop  offset="0" style="stop-color:#00C2FF"/>
			<stop  offset="1" style="stop-color:#004FFF"/>
		</linearGradient>
		<path class="st5" d="M1030.1,943.8v112.3h-20.8V943.8H1030.1z"/>
		<linearGradient id="SVGID_3_" gradientUnits="userSpaceOnUse" x1="1138.2592" y1="769.7661" x2="1138.2592" y2="1173.2827">
			<stop  offset="0" style="stop-color:#00C2FF"/>
			<stop  offset="1" style="stop-color:#004FFF"/>
		</linearGradient>
		<path class="st6" d="M1079.4,1056.2V943.8h21.6l38.1,85.2l37.3-85.2h20.8v112.3h-19.2v-78.2l-30.5,78.2h-17.7l-31.1-78.2v78.2
			H1079.4z"/>
		<linearGradient id="SVGID_4_" gradientUnits="userSpaceOnUse" x1="1285.4425" y1="769.7661" x2="1285.4425" y2="1173.2827">
			<stop  offset="0" style="stop-color:#00C2FF"/>
			<stop  offset="1" style="stop-color:#004FFF"/>
		</linearGradient>
		<path class="st7" d="M1323.3,943.8v17.9h-56.2V990h53.6v18.6h-53.8v29.4h57.6v18.1h-78V943.8H1323.3z"/>
		<linearGradient id="SVGID_5_" gradientUnits="userSpaceOnUse" x1="1421.4326" y1="769.7661" x2="1421.4326" y2="1173.2827">
			<stop  offset="0" style="stop-color:#00C2FF"/>
			<stop  offset="1" style="stop-color:#004FFF"/>
		</linearGradient>
		<path class="st8" d="M1365.5,1000.2c0-38.1,18.8-57.1,56.4-57.1c37,0,55.5,19,55.5,57.1c0,37.9-18.5,56.8-55.5,56.8
			C1386,1056.9,1367.2,1038,1365.5,1000.2z M1421.9,1038.9c22.6,0,33.9-13.1,33.9-39.2c0-25.7-11.3-38.6-33.9-38.6
			c-23.2,0-34.8,12.9-34.8,38.6C1387.1,1025.8,1398.7,1038.9,1421.9,1038.9z"/>
	</g>
	<g>
		<g>
			<linearGradient id="SVGID_6_" gradientUnits="userSpaceOnUse" x1="691.1652" y1="769.7661" x2="691.1652" y2="1173.2827">
				<stop  offset="0" style="stop-color:#00C2FF"/>
				<stop  offset="1" style="stop-color:#004FFF"/>
			</linearGradient>
			<path class="st9" d="M764.5,909.5l-73.3,46.9l-73.3-46.9c20-16.2,45.5-26,73.3-26C719,883.5,744.5,893.2,764.5,909.5z"/>
			<linearGradient id="SVGID_7_" gradientUnits="userSpaceOnUse" x1="691.1652" y1="769.7661" x2="691.1652" y2="1173.2827">
				<stop  offset="0" style="stop-color:#00C2FF"/>
				<stop  offset="1" style="stop-color:#004FFF"/>
			</linearGradient>
			<path class="st10" d="M789.6,1106.6l-98.5,63l-98.5-63l25.1-16.1c20,16.2,45.5,26,73.3,26c27.8,0,53.3-9.7,73.3-26L789.6,1106.6z
				"/>
		</g>
		<linearGradient id="SVGID_8_" gradientUnits="userSpaceOnUse" x1="691.1668" y1="769.7661" x2="691.1668" y2="1173.2827">
			<stop  offset="0" style="stop-color:#00C2FF"/>
			<stop  offset="1" style="stop-color:#004FFF"/>
		</linearGradient>
		<path class="st11" d="M844.1,1078l-121.9-78l121.9-78c9.8-6.3,15.7-17,15.7-28.6c0-11.6-5.9-22.3-15.7-28.6l-152.9-97.9
			l-152.9,97.9c-9.8,6.3-15.7,17-15.7,28.6c0,11.6,5.9,22.3,15.7,28.6l121.9,78l-121.9,78c-9.8,6.3-15.7,17-15.7,28.6
			c0,11.6,5.9,22.3,15.7,28.6l152.9,97.9l152.9-97.9c9.8-6.3,15.7-17,15.7-28.6C859.7,1095,853.9,1084.3,844.1,1078z M556.3,893.8
			c-0.1-0.1-0.3-0.2-0.3-0.5s0.1-0.4,0.3-0.5l134.9-86.3L826,892.9c0.1,0.1,0.3,0.2,0.3,0.5s-0.1,0.4-0.3,0.5l-134.9,86.3
			L556.3,893.8z M826,1107.1l-134.9,86.3l-134.9-86.3c-0.1-0.1-0.3-0.2-0.3-0.5s0.1-0.4,0.3-0.5l134.9-86.3l134.9,86.3
			c0.1,0.1,0.3,0.2,0.3,0.5S826.2,1107,826,1107.1z"/>
		<linearGradient id="SVGID_9_" gradientUnits="userSpaceOnUse" x1="691.1663" y1="769.7661" x2="691.1663" y2="1173.2827">
			<stop  offset="0" style="stop-color:#00C2FF"/>
			<stop  offset="1" style="stop-color:#004FFF"/>
		</linearGradient>
		<rect x="685.2" y="1018.2" class="st12" width="12" height="23.5"/>
		<linearGradient id="SVGID_10_" gradientUnits="userSpaceOnUse" x1="691.1663" y1="769.7661" x2="691.1663" y2="1173.2827">
			<stop  offset="0" style="stop-color:#00C2FF"/>
			<stop  offset="1" style="stop-color:#004FFF"/>
		</linearGradient>
		<rect x="685.2" y="1052.5" class="st13" width="12" height="23.5"/>
		<linearGradient id="SVGID_11_" gradientUnits="userSpaceOnUse" x1="691.1663" y1="769.7661" x2="691.1663" y2="1173.2827">
			<stop  offset="0" style="stop-color:#00C2FF"/>
			<stop  offset="1" style="stop-color:#004FFF"/>
		</linearGradient>
		<rect x="685.2" y="1086.7" class="st14" width="12" height="23.5"/>
	</g>
</g>
</svg>
